<svg xmlns="http://www.w3.org/2000/svg" xmlns:xlink="http://www.w3.org/1999/xlink" viewBox="0 0 121.167 119.583" fill="#fff" fill-rule="evenodd" stroke="#000" stroke-linecap="round" stroke-linejoin="round"><use xlink:href="#A" x="2.083" y="2.083"/><symbol id="A" overflow="visible"><g fill-rule="nonzero"><path d="M0 58.333A58.21 58.21 0 0 1 58.333 0a58.21 58.21 0 0 1 58.333 58.333 58.21 58.21 0 0 1-58.333 58.333A58.21 58.21 0 0 1 0 58.333z" fill="#3f3f3f" stroke="#3f3f3f" stroke-width="4.167"/><g fill="#000"><path d="M43.75 112.5c41.673 0 34.715-108.333 34.715-108.333s51.996 14.583 34.667 72.917S11.25 112.5 43.75 112.5z" stroke-miterlimit="10" stroke-width=".425" opacity=".4" stroke-linejoin="miter"/><path d="M54.167 60.417H62.5v4.167h-8.333z" stroke-width=".521"/></g></g><g stroke-width="4.167" fill="none"><path d="M58.333 116.667C26.117 116.667 0 90.55 0 58.333S26.117 0 58.333 0m0 0c32.217 0 58.333 26.117 58.333 58.333s-26.117 58.333-58.333 58.333"/><path d="M58.334 65.625c2.302 0 5.208-1.865 5.208-4.167h-9.375a4.17 4.17 0 0 0 4.167 4.167zM39.583 79.167s4.7 5.629 18.521 8.333c10.646 2.083 23.146-8.333 23.146-8.333"/><use xlink:href="#C"/><use xlink:href="#C" x="39.583"/></g><g fill-rule="nonzero"><use xlink:href="#C" x="39.583" stroke-width="2.083"/><use xlink:href="#D" stroke-width="4.167" fill="#000"/><use xlink:href="#C" stroke-width="2.083"/><use xlink:href="#D" x="-39.584" stroke-width="4.167" fill="#000"/></g></symbol><defs ><path id="C" d="M28.125 40.625c0-5.771 4.646-10.417 10.417-10.417s10.417 4.646 10.417 10.417-4.646 10.417-10.417 10.417-10.417-4.646-10.417-10.417z"/><path id="D" d="M79.167 41.146a3.64 3.64 0 1 1 7.292 0 3.64 3.64 0 1 1-7.292 0z"/></defs></svg>